<svg width="1600" height="1200" viewBox="0 0 1600 1200" fill="none" xmlns="http://www.w3.org/2000/svg">
  <rect width="1600" height="1200" fill="#130F23"/>
  <rect width="1600" height="1200" fill="url(#bg)"/>
  <circle cx="1220" cy="260" r="260" fill="url(#glowA)"/>
  <circle cx="360" cy="860" r="240" fill="url(#glowB)"/>
  <path d="M800 220L870 420H1080L910 540L980 760L800 620L620 760L690 540L520 420H730L800 220Z" fill="url(#star)" fill-opacity="0.9"/>
  <path d="M1060 420C1130 500 1180 610 1180 720C1180 940 1000 1080 780 1080C620 1080 490 1010 410 900" stroke="white" stroke-opacity="0.3" stroke-width="4" stroke-linecap="round"/>
  <text x="120" y="950" fill="white" font-size="120" font-family="Arial, sans-serif" font-weight="700">META</text>
  <text x="125" y="1035" fill="white" fill-opacity="0.72" font-size="44" font-family="Arial, sans-serif">Image2 Prompt Preview</text>
  <defs>
    <linearGradient id="bg" x1="1510" y1="80" x2="90" y2="1120" gradientUnits="userSpaceOnUse">
      <stop stop-color="#8B5CF6"/>
      <stop offset="0.45" stop-color="#312E81"/>
      <stop offset="1" stop-color="#111827"/>
    </linearGradient>
    <radialGradient id="glowA" cx="0" cy="0" r="1" gradientUnits="userSpaceOnUse" gradientTransform="translate(1220 260) rotate(90) scale(260)">
      <stop stop-color="#C4B5FD"/>
      <stop offset="1" stop-color="#C4B5FD" stop-opacity="0"/>
    </radialGradient>
    <radialGradient id="glowB" cx="0" cy="0" r="1" gradientUnits="userSpaceOnUse" gradientTransform="translate(360 860) rotate(90) scale(240)">
      <stop stop-color="#A78BFA"/>
      <stop offset="1" stop-color="#A78BFA" stop-opacity="0"/>
    </radialGradient>
    <linearGradient id="star" x1="520" y1="220" x2="1060" y2="760" gradientUnits="userSpaceOnUse">
      <stop stop-color="#E9D5FF"/>
      <stop offset="0.55" stop-color="#C084FC"/>
      <stop offset="1" stop-color="#8B5CF6"/>
    </linearGradient>
  </defs>
</svg>
