<svg width="1600" height="1200" viewBox="0 0 1600 1200" fill="none" xmlns="http://www.w3.org/2000/svg">
  <rect width="1600" height="1200" fill="#06121E"/>
  <rect width="1600" height="1200" fill="url(#bg)"/>
  <circle cx="1240" cy="260" r="240" fill="url(#glowA)"/>
  <rect x="220" y="230" width="1160" height="700" rx="36" fill="#08111D" fill-opacity="0.9" stroke="white" stroke-opacity="0.12" stroke-width="3"/>
  <rect x="280" y="310" width="320" height="34" rx="17" fill="#22D3EE" fill-opacity="0.4"/>
  <rect x="280" y="390" width="760" height="22" rx="11" fill="white" fill-opacity="0.12"/>
  <rect x="280" y="444" width="680" height="22" rx="11" fill="white" fill-opacity="0.12"/>
  <rect x="280" y="498" width="800" height="22" rx="11" fill="white" fill-opacity="0.12"/>
  <rect x="280" y="620" width="240" height="180" rx="24" fill="#0EA5E9" fill-opacity="0.14" stroke="#22D3EE" stroke-opacity="0.3" stroke-width="2"/>
  <rect x="560" y="620" width="240" height="180" rx="24" fill="#38BDF8" fill-opacity="0.12" stroke="#38BDF8" stroke-opacity="0.28" stroke-width="2"/>
  <rect x="840" y="620" width="240" height="180" rx="24" fill="#60A5FA" fill-opacity="0.12" stroke="#60A5FA" stroke-opacity="0.28" stroke-width="2"/>
  <path d="M1120 360L1270 360" stroke="#93C5FD" stroke-width="3" stroke-linecap="round" stroke-dasharray="8 8"/>
  <path d="M1120 430L1330 430" stroke="#93C5FD" stroke-width="3" stroke-linecap="round" stroke-dasharray="8 8"/>
  <text x="120" y="950" fill="white" font-size="120" font-family="Arial, sans-serif" font-weight="700">TECH</text>
  <text x="125" y="1035" fill="white" fill-opacity="0.72" font-size="44" font-family="Arial, sans-serif">Image2 Prompt Preview</text>
  <defs>
    <linearGradient id="bg" x1="1440" y1="80" x2="80" y2="1150" gradientUnits="userSpaceOnUse">
      <stop stop-color="#0F766E"/>
      <stop offset="0.42" stop-color="#0F172A"/>
      <stop offset="1" stop-color="#020617"/>
    </linearGradient>
    <radialGradient id="glowA" cx="0" cy="0" r="1" gradientUnits="userSpaceOnUse" gradientTransform="translate(1240 260) rotate(90) scale(240)">
      <stop stop-color="#22D3EE"/>
      <stop offset="1" stop-color="#22D3EE" stop-opacity="0"/>
    </radialGradient>
  </defs>
</svg>
